# xmcd
#
# Track frame offsets: 
#        150
#        17420
#        32008
#        49268
#        68255
#        82617
#        99279
#        113954
#        131090
#        145844
#
# Disc length: 2186 seconds
#
# Revision: 0
# Processed by: cddbd v1.5.2PL0 Copyright (c) Steve Scherf et al.
# Submitted via: ExactAudioCopy v1.3
#
DISCID=7108880a
DTITLE=Группа Федулова - Живой концерт в The Tennis Club Gallery
DYEAR=2017
DGENRE=Blues
TTITLE0=Блюз для неё
TTITLE1=Она грустит не о нём
TTITLE2=Беги, подруга
TTITLE3=Шторм в небесах
TTITLE4=Не толкайте в спину
TTITLE5=Суши глаза
TTITLE6=Сделай мне блюз, дедка
TTITLE7=Не гадайте, девочки, зазря
TTITLE8=Старый хиппи
TTITLE9=Долгие зимы
EXTD=
EXTT0=
EXTT1=
EXTT2=
EXTT3=
EXTT4=
EXTT5=
EXTT6=
EXTT7=
EXTT8=
EXTT9=
PLAYORDER=
